<svg xmlns="http://www.w3.org/2000/svg" width="980" height="980" viewBox="0 0 980 980" version="1.1"><path d="" stroke="none" fill="#0c5c94" fill-rule="evenodd"/><path d="M 446.411 1.516 C 355.921 9.733, 270.211 42.427, 197.454 96.479 C 160.545 123.898, 123.898 160.545, 96.479 197.454 C 47.771 263.017, 16.554 338.670, 4.548 420.238 C -1.522 461.476, -1.522 518.524, 4.548 559.762 C 18.057 651.542, 55.049 733.984, 115.055 806.046 C 128.366 822.030, 157.970 851.634, 173.954 864.945 C 246.016 924.951, 328.458 961.943, 420.238 975.452 C 461.476 981.522, 518.524 981.522, 559.762 975.452 C 651.542 961.943, 733.984 924.951, 806.046 864.945 C 822.030 851.634, 851.634 822.030, 864.945 806.046 C 906.272 756.416, 936.432 702.377, 956.006 642.883 C 967.508 607.925, 976.498 563.259, 978.611 530.570 C 978.989 524.720, 979.682 519.697, 980.149 519.408 C 980.617 519.119, 981 505.382, 981 488.882 C 981 472.382, 980.615 459.120, 980.145 459.410 C 979.675 459.701, 978.983 455.181, 978.607 449.366 C 975.793 405.836, 962.989 351.679, 944.878 306.694 C 911.574 223.974, 854.264 149.758, 782.546 96.479 C 709.217 42.002, 623.732 9.558, 532.262 1.489 C 511.853 -0.312, 466.379 -0.297, 446.411 1.516 M 457 17.035 C 340.435 26.032, 236.425 73.539, 154.982 154.982 C 77.188 232.775, 30.406 331.045, 18.344 442 C 15.833 465.099, 15.833 514.901, 18.344 538 C 30.406 648.955, 77.188 747.225, 154.982 825.018 C 232.775 902.812, 331.045 949.594, 442 961.656 C 465.099 964.167, 514.901 964.167, 538 961.656 C 648.955 949.594, 747.225 902.812, 825.018 825.018 C 902.812 747.225, 949.594 648.955, 961.656 538 C 964.167 514.901, 964.167 465.099, 961.656 442 C 949.594 331.045, 902.812 232.775, 825.018 154.982 C 747.513 77.477, 648.421 30.188, 539 18.489 C 520.904 16.554, 474.004 15.722, 457 17.035 M 478.658 77.661 C 478.296 88.474, 478 100.849, 478 105.161 L 478 113 485 113 L 492 113 492.079 95.750 L 492.158 78.500 496.741 95.500 C 499.262 104.850, 501.364 112.550, 501.412 112.611 C 501.461 112.672, 504.735 113.010, 508.689 113.362 L 515.878 114.003 518.513 105.251 C 519.962 100.438, 522.386 92.450, 523.901 87.500 L 526.655 78.500 526.191 96.250 L 525.727 114 532.708 114 L 539.689 114 540.341 99.750 C 540.699 91.912, 540.994 79.537, 540.996 72.250 L 541 59 531.043 59 L 521.086 59 516.982 72.250 C 514.725 79.537, 512.093 87.936, 511.134 90.914 L 509.391 96.328 504.331 77.914 C 498.549 56.872, 499.880 58.343, 486.408 58.118 L 479.317 58 478.658 77.661 M 435.601 62.082 C 432.356 62.568, 429.520 63.147, 429.298 63.368 C 429.077 63.590, 426.576 75.748, 423.742 90.386 C 420.908 105.024, 418.337 117, 418.028 117 C 417.720 117, 412.365 111.883, 406.129 105.629 L 394.790 94.258 399.903 80.470 C 402.715 72.887, 404.873 66.539, 404.698 66.365 C 404.041 65.707, 389.469 70.290, 388.780 71.371 C 388.384 71.992, 386.402 77.338, 384.375 83.250 C 382.348 89.162, 380.413 94, 380.074 94 C 379.735 94, 378.389 89.838, 377.083 84.750 C 375.777 79.662, 374.558 75.220, 374.375 74.879 C 374.033 74.242, 361.147 77.520, 360.176 78.491 C 359.751 78.915, 372.715 129.669, 373.534 130.790 C 373.857 131.231, 386.386 127.759, 387.308 126.973 C 387.752 126.595, 387.162 122.551, 385.997 117.989 C 384.099 110.554, 384.037 109.534, 385.404 108.167 C 386.771 106.801, 387.737 107.501, 394.715 114.911 L 402.500 123.179 411 121.132 C 415.675 120.007, 422.940 118.808, 427.144 118.468 L 434.788 117.849 435.457 112.497 L 436.126 107.146 442.813 106.473 C 446.491 106.103, 450.330 105.732, 451.344 105.650 C 452.654 105.543, 453.712 106.803, 455 110 C 456.989 114.941, 456.611 114.832, 467.250 113.549 C 470.413 113.168, 472.988 112.551, 472.972 112.178 C 472.957 111.805, 467.641 100.250, 461.159 86.500 L 449.373 61.500 445.437 61.349 C 443.271 61.266, 438.845 61.596, 435.601 62.082 M 560 65.621 C 559.999 66.105, 557.978 77.956, 555.508 91.958 C 553.038 105.960, 551.350 117.699, 551.758 118.044 C 552.677 118.822, 565.242 121.092, 565.760 120.574 C 566.234 120.099, 574.987 71.082, 574.995 68.858 C 575 67.077, 573.297 66.477, 565.250 65.427 C 562.362 65.050, 560 65.138, 560 65.621 M 589.920 75.250 C 580.222 110.881, 577.260 122.604, 577.824 123.127 C 578.579 123.826, 608.855 132, 610.691 132 C 611.719 132, 615.600 121.189, 614.809 120.526 C 614.639 120.383, 610.450 119.235, 605.500 117.974 C 600.550 116.713, 596.199 115.416, 595.830 115.091 C 595.462 114.766, 597.588 105.526, 600.555 94.558 C 603.522 83.590, 605.849 74.550, 605.725 74.469 C 605.094 74.053, 593.208 71, 592.223 71 C 591.593 71, 590.557 72.912, 589.920 75.250 M 439.596 80.504 C 439.207 84.795, 438.619 89.657, 438.288 91.310 L 437.687 94.315 442.514 93.653 C 445.170 93.289, 447.475 92.858, 447.638 92.695 C 447.801 92.532, 446.218 87.967, 444.119 82.551 L 440.303 72.703 439.596 80.504 M 636.257 107.820 C 627.510 117.544, 618.882 127.182, 617.084 129.238 L 613.814 132.976 621.157 136.385 L 628.500 139.795 632.058 135.777 L 635.616 131.759 643.058 135.002 C 647.151 136.786, 650.641 138.369, 650.814 138.520 C 650.987 138.671, 650.716 141.059, 650.213 143.827 L 649.298 148.860 656.671 152.075 C 660.726 153.843, 664.219 155.112, 664.433 154.895 C 664.890 154.430, 670 104.639, 670 100.651 C 670 98.383, 669.250 97.602, 665.500 95.964 C 663.025 94.884, 659.011 93.131, 656.580 92.070 L 652.161 90.140 636.257 107.820 M 300.692 102.193 C 292.577 106.074, 291.963 106.575, 292.433 108.943 C 292.712 110.349, 294.566 122.975, 296.553 137 C 298.540 151.024, 300.326 162.660, 300.523 162.856 C 300.719 163.052, 304.071 161.742, 307.971 159.944 L 315.063 156.675 314.423 151.020 L 313.783 145.365 321.037 142.121 L 328.291 138.878 331.960 142.460 L 335.628 146.043 342.564 142.913 C 346.379 141.192, 349.671 139.624, 349.879 139.429 C 350.340 138.999, 310.949 98, 310.075 98 C 309.735 98, 305.513 99.887, 300.692 102.193 M 650.500 112.724 C 647.200 116.966, 644.364 120.746, 644.198 121.124 C 643.908 121.784, 650.473 124.450, 652.473 124.484 C 653.008 124.493, 654.171 120.112, 655.056 114.750 C 655.941 109.388, 656.628 105.003, 656.583 105.006 C 656.537 105.009, 653.800 108.482, 650.500 112.724 M 307.038 114.143 C 306.989 114.968, 309.988 130.097, 310.529 131.752 C 310.831 132.675, 312.116 132.432, 315.415 130.829 L 319.890 128.655 317.978 126.077 C 315.004 122.068, 307.081 113.426, 307.038 114.143 M 257.217 127.242 C 249.948 131.775, 244 135.880, 244 136.363 C 244 137.347, 269.621 178.754, 271.513 180.826 C 272.505 181.912, 273.788 181.479, 278.612 178.430 C 281.850 176.382, 284.636 174.600, 284.802 174.469 C 284.968 174.337, 282.830 170.649, 280.052 166.272 C 277.273 161.896, 275.008 157.907, 275.017 157.408 C 275.027 156.908, 277.957 154.761, 281.528 152.634 L 288.020 148.769 285.831 145.134 C 281.162 137.385, 282.080 137.646, 274.935 142.041 C 271.396 144.218, 268.207 145.999, 267.849 145.999 C 267.280 146, 263 139.431, 263 138.558 C 263 138.377, 266.150 136.326, 270 134 C 273.850 131.674, 277 129.460, 277 129.081 C 277 128.310, 271.218 119, 270.739 119 C 270.571 119, 264.486 122.709, 257.217 127.242 M 701.988 144.583 C 693.662 156.453, 687.054 166.699, 687.305 167.352 C 688.109 169.448, 708.850 182.883, 713.011 184.003 C 719.104 185.644, 723.910 184.336, 728.203 179.868 C 732.653 175.237, 733.861 170.433, 731.678 166.055 L 730.153 163 733.172 163 C 737.437 163, 741.449 160.325, 744.005 155.777 C 747.004 150.441, 746.087 146.134, 740.707 140.299 C 737.134 136.422, 719.260 123, 717.670 123 C 717.371 123, 710.314 132.712, 701.988 144.583 M 721.076 143.893 C 718.417 147.627, 718.464 148.419, 721.465 150.385 C 727.728 154.489, 733.190 149.221, 727.750 144.323 C 723.948 140.900, 723.240 140.854, 721.076 143.893 M 223.500 154.675 C 215.248 156.479, 206.129 163.101, 202.012 170.280 C 195.930 180.887, 199.219 193.433, 210.926 204.271 C 217.454 210.315, 223.267 212.568, 230.290 211.777 C 243.714 210.263, 256.922 195.943, 255.787 184.132 C 254.287 168.520, 236.093 151.922, 223.500 154.675 M 708.448 162.075 C 705.406 166.464, 705.384 166.399, 711 169.416 C 715.698 171.940, 720.517 167.704, 718.096 163.179 C 717.217 161.538, 712.829 158, 711.671 158 C 711.452 158, 710.001 159.834, 708.448 162.075 M 469.448 163 C 360.709 170.526, 266.256 227.954, 209.142 321.269 C 206.864 324.990, 205 328.252, 205 328.518 C 205 328.783, 208.938 328.975, 213.750 328.945 L 222.500 328.890 229 318.713 C 239.768 301.854, 251.608 287.365, 268.484 270.397 C 286.266 252.520, 299.319 241.720, 318 229.431 C 357.358 203.540, 397.149 188.316, 445 180.841 C 457.720 178.854, 463.245 178.576, 490 178.576 C 516.755 178.576, 522.280 178.854, 535 180.841 C 582.851 188.316, 622.642 203.540, 662 229.431 C 680.681 241.720, 693.734 252.520, 711.516 270.397 C 728.392 287.365, 740.232 301.854, 751 318.713 L 757.500 328.890 766.250 328.945 C 771.063 328.975, 775 328.783, 775 328.518 C 775 327.750, 767.235 315.272, 760.989 306.001 C 718.966 243.634, 654.421 196.670, 581.500 175.400 C 547.382 165.449, 503.779 160.623, 469.448 163 M 745.075 177.200 L 720.717 192.400 724.109 195.288 C 725.974 196.876, 728.953 199.307, 730.729 200.690 L 733.957 203.205 738.131 200.135 L 742.304 197.066 748.157 202.136 C 751.376 204.924, 754.249 207.594, 754.542 208.069 C 754.836 208.543, 754.101 210.842, 752.910 213.177 L 750.744 217.423 755.622 221.744 C 764.253 229.390, 762.613 231.126, 774.044 202.246 C 779.648 188.086, 784.294 176.034, 784.367 175.464 C 784.478 174.601, 770.817 162, 769.770 162 C 769.584 162, 758.471 168.840, 745.075 177.200 M 218.973 170.704 C 214.787 173.589, 213.919 175.264, 214.337 179.650 C 215.083 187.489, 224.509 197.404, 231.039 197.218 C 237.648 197.030, 242.089 190.831, 240.047 184.643 C 238.667 180.460, 231.864 172.498, 227.935 170.466 C 224.241 168.556, 222.003 168.615, 218.973 170.704 M 761.042 183.687 C 756.941 186.654, 753.432 189.234, 753.246 189.420 C 753.060 189.607, 754.737 191.208, 756.973 192.978 L 761.038 196.198 765.066 187.479 C 767.281 182.684, 768.960 178.655, 768.797 178.526 C 768.634 178.397, 765.144 180.719, 761.042 183.687 M 167.438 203.995 C 160.322 212.242, 154.500 219.342, 154.500 219.772 C 154.500 220.202, 156.446 222.312, 158.824 224.460 L 163.149 228.367 167.152 223.684 C 169.354 221.108, 171.493 219, 171.906 219 C 172.319 219, 179.372 224.839, 187.579 231.976 C 195.785 239.113, 202.950 244.949, 203.500 244.944 C 204.784 244.932, 212.201 236.290, 212.371 234.607 C 212.442 233.905, 205.640 227.354, 197.255 220.049 L 182.010 206.766 186.220 201.737 L 190.431 196.707 185.966 192.856 C 183.510 190.738, 181.247 189.004, 180.938 189.003 C 180.629 189.001, 174.554 195.748, 167.438 203.995 M 792.500 207.858 C 785.162 211.352, 777.063 219.650, 774.539 226.260 C 771.025 235.459, 774.209 245.329, 783.431 253.830 C 790.912 260.726, 792.180 260.967, 797.218 256.457 C 799.573 254.348, 801.615 252.361, 801.756 252.042 C 801.897 251.723, 800.412 250.600, 798.456 249.546 C 796.500 248.493, 793.347 245.913, 791.450 243.812 C 785.881 237.649, 787.067 231.522, 795.171 224.586 C 800.065 220.397, 805.651 218.537, 809.241 219.902 C 812.492 221.138, 816.674 226.237, 817.492 229.965 C 817.856 231.621, 818.561 233.229, 819.059 233.536 C 820.311 234.310, 830.131 230.766, 830.691 229.337 C 831.611 226.991, 825.518 216.760, 820.433 212.113 C 811.915 204.328, 802.823 202.943, 792.500 207.858 M 136.805 242.772 C 130.531 251.422, 125.097 258.996, 124.730 259.603 C 124.088 260.665, 131.816 267, 133.753 267 C 134.262 267, 137.271 263.400, 140.439 259 C 143.607 254.600, 146.545 251, 146.969 251 C 147.393 251, 150.532 259.288, 153.945 269.417 C 159.894 287.071, 160.311 287.940, 164.009 290.387 L 167.866 292.940 179.599 276.720 C 186.053 267.799, 191.697 260.017, 192.143 259.426 C 192.919 258.397, 185.077 252, 183.039 252 C 182.542 252, 179.375 255.825, 176 260.500 C 172.625 265.175, 169.557 268.997, 169.182 268.994 C 168.807 268.990, 165.800 261.006, 162.500 251.250 C 158.285 238.791, 155.756 232.813, 154 231.159 C 148.654 226.124, 149.098 225.825, 136.805 242.772 M 834.253 242.097 L 830.006 245.105 833.644 250.803 C 835.645 253.936, 838.331 258.049, 839.614 259.943 C 840.897 261.837, 841.846 263.475, 841.724 263.582 C 841.601 263.690, 832.725 263.411, 822 262.961 L 802.500 262.144 798.750 264.586 C 796.688 265.929, 795 267.405, 795 267.866 C 795 268.663, 815.369 300.574, 817.009 302.346 C 817.440 302.812, 820.062 301.664, 822.836 299.796 L 827.879 296.400 821.940 287.153 C 818.673 282.067, 816 277.648, 816 277.331 C 816 277.015, 824.790 277.086, 835.534 277.489 L 855.068 278.221 859.023 275.603 L 862.978 272.986 855.335 261.243 C 851.132 254.784, 846.173 247.137, 844.316 244.250 C 842.458 241.363, 840.390 239.020, 839.719 239.045 C 839.049 239.069, 836.589 240.443, 834.253 242.097 M 280.704 364.987 C 252.272 416.679, 228.894 459.462, 228.754 460.060 C 228.614 460.658, 233.450 462.903, 239.500 465.051 C 268.699 475.413, 301.800 490.782, 324.500 504.517 C 384.884 541.051, 434.476 594.849, 480.710 673.975 C 484.720 680.837, 488 685.862, 488 685.142 C 488 684.423, 484.766 675.691, 480.814 665.739 C 456.836 605.359, 424.266 556.387, 384.443 520.836 C 371.089 508.913, 371.439 510.206, 377.917 496.738 C 384.178 483.720, 391.653 473.294, 402.474 462.485 C 426.458 438.529, 456.501 426.008, 490 426.008 C 523.504 426.008, 553.569 438.540, 577.515 462.485 C 588.342 473.313, 594.792 482.259, 601.621 495.920 C 608.703 510.088, 609.010 508.825, 595.557 520.836 C 555.734 556.387, 523.164 605.359, 499.186 665.739 C 495.234 675.691, 492 684.423, 492 685.142 C 492 685.862, 495.280 680.837, 499.290 673.975 C 545.524 594.849, 595.116 541.051, 655.500 504.517 C 678.200 490.782, 711.301 475.413, 740.500 465.051 C 746.550 462.903, 751.385 460.655, 751.243 460.054 C 751.007 459.045, 648.306 271.973, 647.603 271.270 C 646.997 270.664, 625.600 280.056, 617.099 284.660 C 573.247 308.407, 535.269 343.868, 518.664 376.569 C 511.180 391.308, 508.590 400.764, 514.179 392.947 C 527.739 373.981, 543.477 356.592, 558 344.529 C 572.016 332.887, 593.528 319.259, 608.773 312.364 C 618.498 307.966, 633.273 302, 634.441 302 C 635.988 302, 712.426 448.001, 711.363 448.924 C 710.888 449.336, 708.025 450.704, 705 451.964 C 697.405 455.128, 668.175 469.843, 658.663 475.291 L 650.826 479.780 646.348 471.019 L 641.870 462.259 629.278 466.225 C 617.652 469.886, 616.611 470.057, 615.716 468.456 C 615.182 467.503, 611.919 463.019, 608.465 458.492 L 602.185 450.261 609.334 439.484 L 616.483 428.707 608.509 421.354 C 604.123 417.309, 600.128 414, 599.630 414 C 599.132 414, 594.346 417.580, 588.995 421.955 L 579.266 429.910 575.883 427.396 C 574.022 426.013, 569.314 423.063, 565.420 420.839 L 558.340 416.795 560.504 407.148 C 561.695 401.841, 562.952 396.065, 563.297 394.311 L 563.925 391.123 553.324 386.977 C 546.927 384.477, 542.477 383.228, 542.106 383.829 C 541.767 384.377, 538.836 389.499, 535.593 395.211 L 529.696 405.596 521.098 403.857 C 516.369 402.901, 510.886 401.860, 508.913 401.545 L 505.327 400.971 503.413 388.235 L 501.500 375.500 490 375.500 L 478.500 375.500 476.587 388.235 L 474.673 400.971 471.087 401.545 C 469.114 401.860, 463.631 402.901, 458.902 403.857 L 450.304 405.596 444.407 395.211 C 441.164 389.499, 438.233 384.377, 437.894 383.829 C 437.253 382.791, 415.965 390.581, 416.042 391.826 C 416.065 392.197, 417.340 397.965, 418.876 404.646 L 421.668 416.791 414.584 420.837 C 410.688 423.062, 405.978 426.013, 404.117 427.396 L 400.734 429.910 391.005 421.955 C 385.654 417.580, 380.868 414, 380.370 414 C 379.872 414, 375.877 417.309, 371.491 421.354 L 363.517 428.707 370.666 439.484 L 377.815 450.261 371.535 458.492 C 368.081 463.019, 364.818 467.503, 364.284 468.456 C 363.389 470.057, 362.348 469.886, 350.722 466.225 L 338.130 462.259 333.652 471.019 L 329.174 479.780 321.337 475.291 C 311.825 469.843, 282.595 455.128, 275 451.964 C 271.975 450.704, 269.112 449.336, 268.637 448.924 C 267.574 448.001, 344.012 302, 345.559 302 C 346.170 302, 350.906 303.749, 356.085 305.887 C 404.107 325.713, 435.635 350.725, 465.821 392.947 C 471.410 400.764, 468.820 391.308, 461.336 376.569 C 444.731 343.868, 406.753 308.407, 362.901 284.660 C 356.345 281.109, 333.925 271, 332.606 271 C 332.492 271, 309.136 313.294, 280.704 364.987 M 115.171 278.503 C 102.608 292.250, 103.250 307.493, 116.608 312.594 C 122.430 314.818, 126.594 313.876, 134.313 308.591 C 143.890 302.035, 144.598 301.741, 146.419 303.562 C 147.823 304.966, 147.826 305.484, 146.443 308.810 C 145.600 310.839, 142.652 314.792, 139.893 317.594 L 134.876 322.689 137.188 324.196 C 138.460 325.025, 141.016 326.484, 142.869 327.439 L 146.237 329.174 150.206 325.337 C 155.175 320.533, 159.955 311.279, 160.626 305.165 C 161.271 299.281, 158.072 292.570, 153 289.170 C 150.117 287.237, 148.519 286.892, 143.937 287.212 C 139.157 287.546, 137.334 288.333, 130.993 292.800 C 123.297 298.223, 120.626 299.074, 119.611 296.428 C 118.793 294.297, 120.462 291.302, 125.224 286.353 C 128.063 283.403, 128.967 281.786, 128.357 280.750 C 126.700 277.937, 122.119 273, 121.165 273 C 120.635 273, 117.937 275.477, 115.171 278.503 M 858.770 293.183 C 853.584 299.957, 848.344 306.850, 847.126 308.500 C 845.667 310.475, 841.861 312.867, 835.985 315.500 C 831.076 317.700, 827.046 320.075, 827.030 320.779 C 827.013 321.482, 828.349 324.730, 829.998 327.997 L 832.997 333.936 842.663 329.450 L 852.329 324.963 870.217 326.096 C 880.056 326.718, 888.390 326.944, 888.737 326.596 C 889.085 326.249, 887.856 322.837, 886.007 319.014 L 882.645 312.064 872.346 311.782 L 862.048 311.500 868.637 303.673 L 875.225 295.847 871.961 288.673 C 870.165 284.728, 868.584 281.357, 868.448 281.183 C 868.311 281.009, 863.956 286.409, 858.770 293.183 M 96.305 314.750 C 95.957 315.712, 94.623 318.915, 93.340 321.866 L 91.008 327.232 94.910 331.866 C 97.057 334.415, 100.206 337.823, 101.909 339.439 C 105.998 343.322, 104.794 343.966, 93.404 343.985 L 84.308 344 81.265 351.750 C 79.592 356.012, 78.309 359.599, 78.415 359.721 C 78.521 359.842, 87.037 359.016, 97.340 357.885 L 116.072 355.830 124.636 359.415 C 129.346 361.387, 133.782 363, 134.494 363 C 135.467 363, 141 351.643, 141 349.646 C 141 349.463, 136.645 347.555, 131.323 345.407 L 121.646 341.500 109.725 327.250 C 103.169 319.413, 97.610 313, 97.371 313 C 97.132 313, 96.653 313.788, 96.305 314.750 M 194.500 414.008 C 167 464.567, 144.368 506.552, 144.207 507.309 C 143.990 508.326, 146.206 509.004, 152.707 509.908 C 181.681 513.938, 215.522 521.884, 242.024 530.881 C 315.981 555.986, 376.215 596.395, 466.166 681.250 C 475.349 689.913, 483.157 697, 483.519 697 C 484.310 697, 477.786 687.722, 465.588 671.500 C 434.487 630.140, 394.525 589.578, 357.500 561.788 C 312.086 527.701, 258.403 501.702, 203 486.963 C 196.125 485.134, 190.136 483.332, 189.690 482.959 C 189.117 482.479, 257.924 355.564, 260.622 352.125 C 260.784 351.919, 263.865 352.792, 267.469 354.064 C 271.487 355.483, 274.353 356.015, 274.877 355.439 C 275.347 354.922, 277.810 350.643, 280.350 345.928 L 284.968 337.356 265.723 329.678 C 255.139 325.455, 246.034 322.018, 245.490 322.041 C 244.945 322.064, 222 363.449, 194.500 414.008 M 714.049 329.623 C 703.901 333.718, 695.463 337.204, 695.298 337.368 C 695.133 337.533, 697.346 341.973, 700.216 347.234 L 705.433 356.800 710.466 354.756 C 713.235 353.631, 716.372 352.664, 717.437 352.606 C 718.998 352.521, 726.340 365.126, 755.198 417.439 C 774.901 453.156, 790.679 482.670, 790.261 483.026 C 789.842 483.383, 784.051 485.096, 777.390 486.834 C 720.746 501.613, 663.342 529.847, 617.500 565.477 C 582.050 593.029, 546.867 628.893, 516.829 668.096 C 506.092 682.109, 495.558 697, 496.383 697 C 496.685 697, 502.460 691.759, 509.216 685.353 C 602.007 597.374, 665.881 554.484, 741.061 529.672 C 765.217 521.701, 801.503 513.356, 826.827 509.950 C 834.565 508.909, 836.073 508.423, 835.679 507.097 C 834.328 502.545, 735.174 322.481, 733.941 322.341 C 733.148 322.250, 724.197 325.527, 714.049 329.623 M 868.316 347.340 C 855.015 351.278, 843.843 354.797, 843.489 355.160 C 843.136 355.523, 843.618 358.571, 844.561 361.934 C 845.895 366.685, 846.636 367.935, 847.888 367.544 C 848.775 367.267, 855.575 365.265, 863 363.094 C 870.425 360.923, 877.400 358.856, 878.500 358.501 C 879.600 358.146, 874.004 364.141, 866.065 371.824 L 851.629 385.792 853.912 394.146 C 855.168 398.741, 856.489 403.010, 856.848 403.633 C 857.300 404.418, 865.287 402.521, 882.839 397.461 C 896.775 393.443, 908.428 389.905, 908.734 389.599 C 909.297 389.036, 906.512 378.179, 905.560 377.227 C 905.277 376.943, 897.423 378.948, 888.108 381.681 L 871.171 386.651 883.730 374.575 C 890.638 367.934, 897.125 361.912, 898.145 361.193 C 900.511 359.526, 900.458 358.233, 897.619 348.500 C 896.225 343.719, 894.725 340.436, 893.893 340.340 C 893.127 340.252, 881.617 343.402, 868.316 347.340 M 904.076 357.750 C 904.288 362.619, 906.877 366.337, 914.015 372.024 C 921.471 377.963, 923.622 379.125, 922.761 376.750 C 922.512 376.063, 921.500 372.475, 920.513 368.778 L 918.719 362.057 912.247 359.028 C 904.730 355.511, 903.974 355.392, 904.076 357.750 M 75.104 372.699 C 73.314 379.498, 66 408.899, 66 409.296 C 66 409.948, 77.122 412.211, 77.664 411.670 C 77.943 411.390, 79.295 406.738, 80.668 401.332 C 82.041 395.926, 83.284 391.382, 83.431 391.235 C 83.579 391.088, 89.469 397.691, 96.521 405.908 C 108.150 419.459, 109.757 420.953, 113.793 421.969 C 116.241 422.586, 118.383 422.951, 118.553 422.780 C 119.479 421.854, 128.784 382.401, 128.198 381.886 C 127.008 380.839, 117.792 378.875, 117.128 379.526 C 116.783 379.865, 115.372 384.638, 113.993 390.132 C 112.614 395.626, 111.139 400.105, 110.715 400.085 C 110.290 400.065, 104.326 393.561, 97.460 385.630 C 88.862 375.699, 84.124 371.008, 82.238 370.558 C 80.732 370.199, 78.736 369.679, 77.802 369.402 C 76.514 369.020, 75.863 369.815, 75.104 372.699 M 893.741 406.429 C 886.994 408.837, 884.871 411.880, 881.900 423.404 C 879.956 430.946, 878.255 433.419, 875.688 432.434 C 872.360 431.157, 871.143 418.002, 873.730 411.261 C 874.179 410.090, 873.404 409.964, 869.388 410.554 C 861.235 411.752, 860.319 412.374, 859.618 417.178 C 858.799 422.792, 860.368 432.064, 863.087 437.680 C 866.773 445.294, 874.882 449.186, 882.682 447.086 C 889.776 445.175, 892.514 441.151, 896.442 426.858 C 898.126 420.733, 900.014 419.157, 902.589 421.731 C 903.920 423.062, 904.150 424.847, 903.791 431.045 L 903.347 438.712 909.365 439.831 C 912.675 440.446, 915.635 440.699, 915.942 440.392 C 916.249 440.085, 916.500 435.708, 916.500 430.667 C 916.500 422.481, 916.179 420.858, 913.500 415.500 C 911.070 410.639, 909.653 409.073, 906.038 407.250 C 900.941 404.679, 899.006 404.550, 893.741 406.429 M 106.042 429.914 L 94.584 435.725 91.812 431.899 C 88.270 427.010, 84.330 424.999, 78.300 425.004 C 67.991 425.012, 63.871 430.995, 60.924 450.233 C 59.900 456.922, 59.161 462.457, 59.281 462.533 C 60.604 463.364, 112.481 469.903, 113.030 469.308 C 113.441 468.863, 114.083 465.505, 114.458 461.845 L 115.139 455.189 112.319 454.633 C 110.769 454.326, 107.250 453.796, 104.500 453.454 C 92.804 451.999, 93.164 450.636, 106.737 444.973 L 117.473 440.493 118.214 434.996 C 118.621 431.973, 119.178 428.262, 119.452 426.750 C 119.776 424.962, 119.522 424.018, 118.725 424.052 C 118.051 424.080, 112.344 426.718, 106.042 429.914 M 76.306 440.623 C 75.020 441.168, 72.492 447.825, 73.274 448.607 C 74.028 449.362, 83.916 450.750, 84.485 450.182 C 85.469 449.197, 84.992 444.372, 83.750 442.746 C 82.404 440.984, 78.248 439.799, 76.306 440.623 M 900.500 457.045 C 891.700 457.421, 880.112 457.790, 874.750 457.865 L 865 458 865 466.020 L 865 474.040 874.250 473.415 C 882.808 472.837, 883.590 472.941, 884.698 474.799 C 885.806 476.655, 885.162 477.218, 876.198 482.238 L 866.500 487.670 866.211 496.335 C 866.052 501.101, 866.159 505, 866.449 505 C 866.738 505, 873.260 501.175, 880.943 496.500 C 888.625 491.825, 895.395 488, 895.988 488 C 896.581 488, 901.791 491.170, 907.565 495.043 C 913.339 498.917, 918.724 502.340, 919.531 502.650 C 920.743 503.115, 921 501.894, 921 495.678 C 921 490.747, 920.541 487.686, 919.673 486.821 C 918.943 486.095, 914.030 482.810, 908.755 479.522 C 903.480 476.234, 899.379 473.196, 899.641 472.772 C 899.903 472.347, 904.591 472, 910.059 472 L 920 472 920 467.125 C 920 460.579, 918.998 455.960, 917.625 456.181 C 917.006 456.280, 909.300 456.669, 900.500 457.045 M 0.444 490 C 0.444 506.775, 0.581 513.638, 0.748 505.250 C 0.915 496.863, 0.915 483.137, 0.748 474.750 C 0.581 466.363, 0.444 473.225, 0.444 490 M 59.667 476.736 C 59.409 477.156, 59.490 480.992, 59.849 485.260 L 60.500 493.020 70.852 499.907 L 81.203 506.794 70.602 507.516 L 60 508.239 60 515.619 L 60 523 73.250 522.996 C 80.537 522.994, 92.912 522.699, 100.750 522.341 L 115 521.689 115 514.344 L 115 507 105.535 507 C 97.388 507, 95.934 506.745, 95.091 505.171 C 94.236 503.572, 95.363 502.672, 104.056 498.019 L 114 492.698 114 484.242 C 114 476.996, 113.777 475.872, 112.442 476.384 C 111.585 476.713, 105.030 480.398, 97.876 484.573 C 90.228 489.035, 84.237 491.921, 83.336 491.576 C 82.494 491.252, 76.930 487.609, 70.971 483.480 C 65.011 479.350, 59.925 476.315, 59.667 476.736 M 865.595 510.846 C 864.700 512.294, 864.684 525.393, 865.576 525.653 C 867.054 526.083, 909.588 529, 914.385 529 L 918.742 529 919.441 521.903 C 919.825 518, 919.993 514.660, 919.814 514.480 C 919.634 514.301, 908.915 513.442, 895.994 512.572 C 883.072 511.701, 871.046 510.797, 869.268 510.561 C 867.491 510.325, 865.838 510.453, 865.595 510.846 M 163.678 527.250 C 159.278 535.290, 133 585.915, 133 586.352 C 133 586.535, 143.688 586.966, 156.750 587.311 C 266.052 590.197, 348.531 618.347, 459 690.468 C 467.525 696.033, 475.175 700.989, 476 701.480 C 479.611 703.629, 467.103 690.389, 453.965 678.155 C 383.015 612.086, 303.266 575.959, 198.699 562.517 C 192.208 561.683, 185.372 561, 183.508 561 C 181.643 561, 179.889 560.629, 179.608 560.175 C 179.328 559.722, 183.077 552.068, 187.939 543.166 C 192.802 534.265, 196.450 526.778, 196.046 526.528 C 195.069 525.925, 170.686 521, 168.673 521 C 167.772 521, 165.634 523.676, 163.678 527.250 M 806.500 524.653 C 797.857 526.471, 786.378 529.373, 785.823 529.881 C 785.451 530.221, 788.689 536.996, 793.018 544.935 C 797.347 552.874, 800.663 559.737, 800.386 560.185 C 800.109 560.633, 798.357 561, 796.492 561 C 794.628 561, 787.792 561.683, 781.301 562.517 C 676.734 575.959, 596.985 612.086, 526.035 678.155 C 512.897 690.389, 500.389 703.629, 504 701.480 C 504.825 700.989, 512.475 696.033, 521 690.468 C 554.820 668.388, 582.482 652.492, 612.199 638.060 C 681.435 604.436, 743.944 589.405, 823.250 587.311 C 836.313 586.966, 847 586.565, 847 586.419 C 847 586.274, 839.725 572.170, 830.832 555.077 C 814.817 524.293, 814.635 524.001, 811.582 524.116 C 809.887 524.180, 807.600 524.421, 806.500 524.653 M 862.996 537.750 C 862.993 538.163, 861.868 544.777, 860.496 552.448 C 859.123 560.120, 858 566.951, 858 567.627 C 858 568.803, 868.672 571.661, 869.599 570.734 C 869.842 570.491, 870.715 566.769, 871.539 562.461 C 872.363 558.154, 873.150 554.517, 873.288 554.379 C 873.426 554.241, 875.489 554.390, 877.874 554.710 L 882.209 555.291 881.552 559.396 C 881.191 561.653, 880.638 565.373, 880.323 567.663 L 879.752 571.825 885.422 572.533 C 888.540 572.923, 891.332 573.001, 891.627 572.707 C 891.921 572.412, 892.662 568.938, 893.274 564.986 L 894.386 557.801 897.817 558.358 C 899.704 558.664, 901.443 559.109, 901.681 559.348 C 901.919 559.586, 901.443 563.318, 900.622 567.640 C 899.802 571.963, 899.438 575.799, 899.815 576.165 C 900.192 576.530, 902.988 577.132, 906.030 577.502 L 911.560 578.175 914.250 562.391 C 915.729 553.709, 916.821 546.487, 916.675 546.342 C 916.336 546.003, 865.741 537, 864.175 537 C 863.529 537, 862.998 537.337, 862.996 537.750 M 107.884 553.116 C 103.582 557.418, 107.441 567, 113.476 567 C 117.103 567, 121 563.302, 121 559.862 C 121 556.703, 119.443 552.996, 117.600 551.765 C 115.347 550.261, 109.995 551.005, 107.884 553.116 M 96.819 582.410 C 83.244 586.860, 71.799 590.845, 71.386 591.266 C 70.972 591.688, 71.944 596.131, 73.545 601.140 L 76.456 610.248 95.978 609.561 L 115.500 608.873 110.884 612.187 C 108.345 614.009, 101.269 618.875, 95.160 623 C 89.051 627.125, 84.041 631.173, 84.027 631.997 C 84.003 633.311, 88.850 648.993, 89.534 649.814 C 89.795 650.128, 140.131 634, 140.910 633.353 C 141.136 633.166, 140.502 630.310, 139.502 627.006 C 138.258 622.898, 137.180 621.012, 136.092 621.038 C 135.216 621.059, 127.975 623.253, 120 625.913 C 112.025 628.573, 105.385 630.653, 105.244 630.536 C 105.103 630.418, 111.516 625.972, 119.494 620.657 C 127.472 615.341, 134 610.632, 134 610.190 C 134 609.749, 133.056 606.592, 131.901 603.174 L 129.803 596.959 116.151 597.509 C 108.643 597.811, 100.025 598.226, 97 598.431 C 93.975 598.637, 92.400 598.573, 93.500 598.290 C 103.755 595.649, 126 587.673, 126 586.637 C 126 584.977, 122.921 575.679, 122.117 574.910 C 121.778 574.586, 110.393 577.961, 96.819 582.410 M 862.459 583.298 C 856.298 586.251, 852.796 590.257, 850.117 597.416 C 847.655 603.998, 845.660 618.570, 846.915 620.813 C 848.077 622.888, 874.991 630.220, 875.563 628.617 C 876.501 625.988, 880.995 608.398, 880.997 607.350 C 881 606.044, 871.605 603.508, 870.134 604.417 C 869.606 604.743, 868.880 606.753, 868.520 608.882 L 867.866 612.753 863.933 611.755 C 859.659 610.670, 859.509 610.308, 861.040 604.795 C 863.310 596.622, 872.665 594.480, 883.071 599.750 C 887.578 602.033, 888.732 603.179, 889.869 606.500 C 891.509 611.290, 890.372 616.699, 886.539 622.348 L 884.080 625.970 889.248 629.911 L 894.416 633.852 896.693 630.501 C 900.247 625.271, 903.054 617.232, 903.684 610.477 C 905.212 594.114, 893.701 582.624, 874.500 581.348 C 868.557 580.953, 866.739 581.247, 862.459 583.298 M 192.433 604.455 C 191.721 606.130, 185.709 620.065, 179.074 635.421 C 172.438 650.778, 167.147 663.481, 167.316 663.649 C 167.484 663.818, 172.545 663.521, 178.561 662.990 C 218.710 659.443, 271.780 659.660, 309 663.523 C 360 668.816, 411.138 682.297, 458.733 702.997 C 466.010 706.163, 471.697 708.319, 471.370 707.789 C 470.589 706.526, 445.563 690.223, 427.960 679.511 C 350.434 632.331, 280.079 608.078, 203.613 602.173 L 193.727 601.410 192.433 604.455 M 776 602.158 C 699.378 608.269, 629.376 632.447, 552.040 679.511 C 534.437 690.223, 509.411 706.526, 508.630 707.789 C 508.303 708.319, 513.990 706.163, 521.267 702.997 C 595.326 670.787, 672.591 657.297, 762.405 660.897 C 777.857 661.517, 795.422 662.458, 801.439 662.990 C 807.455 663.521, 812.516 663.817, 812.685 663.648 C 813.075 663.258, 787.027 602.692, 786.150 601.950 C 785.792 601.648, 781.225 601.741, 776 602.158 M 840.491 638.802 C 832.773 642.430, 825.543 653.621, 824.336 663.808 C 822.706 677.577, 838.835 692.142, 856 692.402 C 861.411 692.484, 863.291 692.035, 867.218 689.727 C 875.716 684.731, 882.749 671.130, 881.657 661.804 C 880.962 655.867, 879.131 652.331, 874.317 647.631 C 865.232 638.760, 849.381 634.623, 840.491 638.802 M 121.500 654.025 C 105.783 661.117, 97.611 665.311, 97.820 666.177 C 98.785 670.160, 103.472 679.028, 104.407 678.639 C 112.011 675.476, 151.701 657.574, 152.283 657.045 C 153.186 656.225, 147.484 642.951, 146.292 643.098 C 145.856 643.151, 134.700 648.069, 121.500 654.025 M 845.011 652.976 C 842.147 653.677, 837.983 659.301, 838.035 662.398 C 838.177 670.773, 855.355 680.092, 863.055 675.970 C 865.446 674.691, 868 669.895, 868 666.685 C 868 659.868, 853.117 650.993, 845.011 652.976 M 219 673.774 C 219 674.199, 222.938 679.786, 227.750 686.189 C 276.514 751.066, 346.339 795.250, 425 811.004 C 448.184 815.647, 464.842 817.247, 490 817.247 C 515.158 817.247, 531.816 815.647, 555 811.004 C 633.661 795.250, 703.486 751.066, 752.250 686.189 C 757.063 679.786, 761 674.199, 761 673.774 C 761 673.348, 757.027 673, 752.172 673 L 743.344 673 735.422 683.248 C 725.256 696.399, 698.517 723.331, 685 734.033 C 640.931 768.924, 591.689 790.304, 535 799.159 C 522.280 801.146, 516.755 801.424, 490 801.424 C 463.245 801.424, 457.720 801.146, 445 799.159 C 388.304 790.302, 339.004 768.895, 295 734.026 C 281.402 723.250, 254.659 696.325, 244.567 683.250 L 236.656 673 227.828 673 C 222.973 673, 219 673.348, 219 673.774 M 173.001 729.123 C 161.456 733.727, 159.427 749.885, 169.436 757.519 C 177.393 763.588, 188.973 760.973, 193.697 752.040 C 196.615 746.522, 196.609 742.469, 193.675 736.907 C 189.773 729.511, 180.646 726.075, 173.001 729.123 M 792.575 730.208 C 788.077 732.834, 784 739.630, 784 744.500 C 784 753.494, 793.052 761.563, 802.208 760.730 C 817.533 759.335, 822.406 740.022, 809.791 730.678 C 805.604 727.576, 797.463 727.354, 792.575 730.208 M 712.219 766.103 C 705.585 770.611, 702.183 773.517, 702.629 774.295 C 703.010 774.958, 710.156 785.625, 718.509 798 C 736.190 824.194, 737.109 825.827, 737.183 831.175 C 737.254 836.290, 734.723 839.752, 728.618 842.894 C 724.459 845.034, 723.516 845.172, 720.081 844.143 C 714.693 842.528, 711.299 838.411, 694.023 812.535 C 685.749 800.141, 678.516 790, 677.951 790 C 677.043 790, 659.865 801.033, 657.634 803.049 C 656.492 804.081, 688.849 852.123, 694.843 858.295 C 703.281 866.983, 714.326 870.522, 725.140 868.004 C 732.874 866.203, 742.927 860.663, 749.882 854.369 C 761.634 843.734, 765.450 829.516, 760.180 816 C 758.264 811.084, 724.231 758.981, 723 759.077 C 722.725 759.099, 717.873 762.260, 712.219 766.103 M 258.673 770.254 C 249.110 783.242, 210.443 836.474, 209.709 837.661 C 209.253 838.400, 216.857 844.521, 230.747 854.598 C 242.711 863.277, 253.904 871.427, 255.619 872.708 L 258.739 875.038 264.974 866.457 C 268.403 861.737, 271.049 857.755, 270.854 857.608 C 270.659 857.461, 264.121 852.732, 256.325 847.100 L 242.150 836.859 255.757 818.180 C 263.241 807.906, 272.862 794.700, 277.138 788.834 L 284.912 778.167 274.460 770.588 L 264.008 763.008 258.673 770.254 M 620 813.636 C 610.921 817.084, 607 820.810, 607 825.990 C 607 829.651, 610.742 835.651, 613.821 836.926 C 619.567 839.306, 630.202 835.056, 633.137 829.208 C 635.151 825.194, 633.984 819.273, 630.542 816.039 C 628.239 813.876, 622.696 812.612, 620 813.636 M 339.836 819.919 C 332.310 822.326, 328.328 824.902, 322.348 831.231 C 316.359 837.570, 313.121 843.016, 309.403 853 C 306.936 859.624, 306.604 861.902, 306.555 872.500 C 306.504 883.671, 306.693 884.893, 309.294 890.190 C 315.999 903.843, 332.844 913.359, 354.158 915.534 C 360.138 916.144, 360.922 916.014, 361.865 914.252 C 362.699 912.693, 369 896.094, 369 895.456 C 369 895.367, 364.837 895.042, 359.750 894.735 C 336.644 893.338, 328.080 883.574, 333.612 864.932 C 337.281 852.565, 343.354 844.176, 350.657 841.387 C 354.586 839.887, 355.862 839.816, 359.832 840.878 C 365.391 842.364, 370.087 845.153, 375.675 850.283 L 379.851 854.117 383.778 849.809 C 385.939 847.439, 389.184 843.795, 390.991 841.711 L 394.276 837.922 391.888 835.355 C 386.098 829.129, 372.755 821.862, 362.812 819.518 C 354.502 817.558, 346.796 817.693, 339.836 819.919 M 544.500 839.701 C 525.800 842.722, 510.350 845.338, 510.166 845.514 C 509.763 845.901, 512.769 865.102, 513.319 865.652 C 513.531 865.865, 521.969 864.703, 532.070 863.070 C 542.170 861.437, 550.571 860.238, 550.739 860.406 C 550.907 860.574, 544.267 874.596, 535.984 891.567 L 520.923 922.422 522.107 929.961 C 522.758 934.108, 523.378 937.615, 523.484 937.755 C 523.698 938.037, 592.862 927.156, 594.557 926.574 C 595.971 926.088, 593.058 905.997, 591.576 906.009 C 590.984 906.013, 582.175 907.354, 572 908.987 C 561.825 910.620, 553.198 911.966, 552.828 911.978 C 552.458 911.990, 559.022 897.968, 567.415 880.818 C 582.388 850.220, 582.659 849.550, 581.861 845.068 C 581.414 842.556, 580.792 839.038, 580.479 837.250 C 580.166 835.462, 579.592 834.047, 579.205 834.105 C 578.817 834.162, 563.200 836.681, 544.500 839.701 M 627.500 841.733 C 621.450 844.292, 616.334 846.503, 616.130 846.646 C 615.927 846.789, 621.422 860.315, 628.342 876.703 C 635.262 893.091, 641.611 908.162, 642.451 910.193 L 643.979 913.885 654.739 909.383 C 660.658 906.906, 665.909 904.475, 666.409 903.981 C 667.258 903.141, 640.163 836.977, 639 837.049 C 638.725 837.066, 633.550 839.174, 627.500 841.733 M 417.568 841.250 C 416.907 844.409, 407.948 931.281, 408.251 931.584 C 408.739 932.069, 433.053 934.280, 433.458 933.876 C 433.806 933.528, 437 906.791, 437 904.228 C 437 903.393, 444.015 899.623, 444.482 900.207 C 444.611 900.368, 447.747 908.375, 451.451 918 C 455.155 927.625, 458.527 935.860, 458.944 936.301 C 459.694 937.094, 485.690 940.307, 487.052 939.776 C 487.440 939.624, 482.664 927.800, 476.437 913.500 C 470.210 899.200, 465.089 887.008, 465.057 886.408 C 465.026 885.807, 472.392 876.811, 481.427 866.418 C 490.462 856.024, 497.741 847.407, 497.603 847.270 C 496.712 846.379, 470.455 844.210, 469.570 844.954 C 468.981 845.448, 462.203 853.277, 454.507 862.350 C 446.811 871.424, 440.345 878.678, 440.137 878.471 C 439.930 878.263, 440.510 870.760, 441.426 861.797 C 442.342 852.834, 443.183 844.600, 443.296 843.500 C 443.479 841.708, 442.563 841.378, 434.500 840.327 C 420.328 838.479, 418.122 838.599, 417.568 841.250" stroke="none" fill="#045c94" fill-rule="evenodd"/></svg>