<?xml version="1.0" encoding="UTF-8"?>
<!DOCTYPE svg PUBLIC "-//W3C//DTD SVG 1.1//EN" "http://www.w3.org/Graphics/SVG/1.1/DTD/svg11.dtd">
<!-- Creator: CorelDRAW X6 -->
<svg xmlns="http://www.w3.org/2000/svg" xml:space="preserve" width="105mm" height="148mm" version="1.1" style="shape-rendering:geometricPrecision; text-rendering:geometricPrecision; image-rendering:optimizeQuality; fill-rule:evenodd; clip-rule:evenodd"
viewBox="0 0 10500 14800"
 xmlns:xlink="http://www.w3.org/1999/xlink"
 sodipodi:docname="pans_logo.svg"
 inkscape:version="1.1.1 (3bf5ae0d25, 2021-09-20)"
 xmlns:inkscape="http://www.inkscape.org/namespaces/inkscape"
 xmlns:sodipodi="http://sodipodi.sourceforge.net/DTD/sodipodi-0.dtd"
 xmlns:svg="http://www.w3.org/2000/svg">
 <defs>
  <style type="text/css">
   <![CDATA[
    .fil0 {fill:#2B2A29}
   ]]>
  </style>
 </defs>
 <g id="Warstwa_x0020_1">
  <metadata id="CorelCorpID_0Corel-Layer"/>
  <g id="_204478096">
   <path class="fil0" d="M4027 6466l-597 0 62 -801 2503 0c224,31 473,111 728,366 243,243 379,571 379,915 0,344 -136,671 -379,915 -16,16 -32,31 -48,46l451 0 0 560 -362 0 0 669 -1354 0 -85 -178 -148 0 -77 178 -1616 0 0 -932 -109 0 109 -290 0 -8 3 0 541 -1440zm528 2308l0 155 -865 0 0 -816 346 0 0 661 520 0zm901 -23l-415 0 -77 178 -344 0 395 -816 460 0 417 816 -352 0 -85 -178zm-211 -504l-140 352 284 0 -144 -352zm1675 13l-361 0 0 669 -346 0 0 -669 -365 0 0 -147 1073 0 0 147zm-2231 -2009l-635 1747 -381 0 653 -1738 -672 0 31 -400 1035 0 -31 391zm1109 -366c580,0 1050,470 1050,1050 0,580 -470,1050 -1050,1050 -580,0 -1050,-470 -1050,-1050 0,-580 470,-1050 1050,-1050zm-855 2022c-16,-15 -32,-30 -48,-46 -173,-173 -291,-388 -345,-621l-307 843 0 484 323 0 320 -661 56 0zm946 560l117 230 0 -230 -117 0z"/>
   <path class="fil0" d="M5099 7129c276,-3 454,77 676,227 -134,-145 -312,-253 -588,-278l36 -66c-18,-4 -37,-9 -58,-11l-66 128zm1049 625l-46 19 -55 -133 46 -19 55 133zm-115 -147c-3,-7 -3,-13 -1,-18 2,-5 8,-9 17,-13 9,-4 16,-4 21,-3 5,2 9,6 12,13 6,13 0,24 -16,30 -16,7 -27,3 -33,-10zm377 -200c18,0 32,14 32,32 0,18 -14,32 -32,32 -18,0 -32,-14 -32,-32 0,-18 14,-32 32,-32zm-610 -1430c266,0 506,108 680,282 174,174 282,415 282,680 0,266 -108,506 -282,680 -174,174 -415,282 -680,282 -266,0 -506,-108 -680,-282 -174,-174 -282,-415 -282,-680 0,-266 108,-506 282,-680 174,-174 415,-282 680,-282zm659 303c-169,-169 -401,-273 -659,-273 -257,0 -490,104 -659,273 -169,169 -273,401 -273,659 0,257 104,490 273,659 169,169 401,273 659,273 257,0 490,-104 659,-273 169,-169 273,-401 273,-659 0,-257 -104,-490 -273,-659zm-1269 1126c18,0 32,14 32,32 0,18 -14,32 -32,32 -18,0 -32,-14 -32,-32 0,-18 14,-32 32,-32zm-52 -141l-97 43 -12 -26 97 -43 12 26zm-37 -90l-66 44 0 1c12,-5 21,-9 28,-11l44 -14 8 24 -101 33 -12 -36 65 -44 0 -1 -78 3 -12 -36 101 -33 8 25 -44 14c-2,1 -5,2 -8,2 -3,1 -10,3 -21,6l0 1 79 -3 8 26zm-37 -87c-4,1 -8,0 -11,-2 -3,-2 -5,-6 -6,-11 -1,-5 0,-9 2,-11 2,-3 5,-5 9,-6 4,-1 8,0 11,2 3,2 5,6 5,10 1,5 0,9 -2,12 -2,3 -5,5 -9,6zm-2 -178l1 32 -40 22 5 8 35 -1 1 29 -106 2 -1 -29 46 -1c-3,-1 -7,-4 -14,-9l-33 -22 -1 -31 48 33 58 -34zm-36 -45l38 5 -4 28 -105 -15 5 -34c4,-28 16,-41 37,-38 12,2 21,9 26,22l50 -24 -5 32 -41 17 -1 7zm-21 -3l1 -5c1,-10 -2,-15 -11,-17 -7,-1 -11,3 -13,13l-1 6 24 3zm86 -136l-20 80 -17 -4 -52 -60 -11 43 -22 -6 19 -78 17 4 52 60 11 -46 22 6zm-43 -75l-30 -32 12 -29 47 56 38 15 -11 27 -38 -15 -74 8 12 -29 43 -2zm89 -108c6,3 10,7 13,13 3,5 4,11 4,18 0,7 -3,14 -7,21 -3,6 -7,11 -10,15 -3,4 -7,7 -12,11l-22 -12c5,-3 10,-7 14,-12 4,-4 7,-9 10,-13 2,-4 3,-7 2,-9 0,-2 -2,-4 -4,-5 -1,-1 -3,-1 -4,-1 -1,0 -3,1 -5,2 -2,1 -6,4 -13,9 -6,5 -11,8 -15,9 -4,2 -8,2 -13,2 -4,0 -9,-2 -13,-4 -9,-5 -14,-11 -15,-20 -1,-9 1,-19 7,-30 5,-10 13,-18 22,-26l15 18c-9,7 -15,13 -18,19 -2,3 -2,6 -2,8 0,2 1,4 3,5 2,1 4,1 6,0 2,-1 8,-5 16,-11 8,-6 15,-10 21,-11 6,-1 12,0 18,4zm80 -60l-48 67 -14 -10 -26 -75 -26 36 -19 -14 47 -65 14 10 26 75 28 -38 19 14zm41 -48l-19 22 -62 -54 -17 20 -18 -15 53 -61 18 15 -17 19 62 54zm67 -133c11,14 17,27 16,40 -1,13 -8,24 -20,35 -13,11 -25,15 -38,14 -13,-1 -25,-9 -36,-23 -11,-13 -17,-27 -16,-39 1,-13 8,-25 20,-35 13,-11 26,-15 38,-14 13,1 25,9 36,23zm-56 47c13,16 25,19 36,10 6,-5 8,-10 8,-16 -1,-6 -4,-13 -11,-21 -7,-8 -13,-13 -19,-15 -6,-2 -12,0 -17,4 -11,9 -10,22 3,38zm129 -32l-24 15 -56 -90 53 -33 12 19 -29 18 11 17 27 -17 12 19 -27 17 21 34zm100 -55l-13 -16 -31 15 4 20 -28 14 -16 -111 34 -17 78 80 -28 14zm-29 -34l-12 -14c-3,-3 -6,-7 -10,-12 -4,-5 -7,-8 -8,-11 1,2 2,6 3,12 1,6 4,17 7,34l20 -10zm191 -20l-31 8 -31 -34 -7 7 9 34 -28 7 -27 -102 28 -7 12 44c1,-3 2,-8 5,-15l13 -37 30 -8 -20 54 47 48zm76 -8l-8 -19 -34 4 -3 20 -31 4 21 -110 38 -5 48 101 -31 4zm-16 -42l-7 -17c-2,-4 -3,-8 -6,-14 -2,-6 -4,-10 -5,-13 0,3 0,7 -1,12 -1,6 -2,17 -4,34l22 -3zm104 39l-20 -77 -1 0c1,13 1,23 1,30l-1 46 -25 0 2 -106 38 1 21 75 1 0 23 -75 38 1 -2 106 -26 0 1 -46c0,-2 0,-5 0,-8 0,-3 1,-10 1,-22l-1 0 -23 76 -27 0zm97 10l18 -104 28 5 -18 104 -28 -5zm51 10l27 -102 28 7 -21 80 39 11 -6 22 -67 -18zm142 50l3 -20 -31 -14 -13 16 -29 -13 75 -83 35 16 -11 111 -29 -13zm7 -44l3 -18c1,-4 1,-9 3,-15 1,-6 2,-11 3,-13 -1,2 -4,5 -7,10 -3,5 -11,14 -21,27l21 9zm126 -6l30 21c12,8 19,16 23,24 3,8 2,15 -3,22 -3,5 -8,8 -12,10 -5,2 -10,2 -15,0l0 1c4,5 7,10 7,15 0,5 -2,10 -5,15 -6,8 -13,12 -22,12 -9,0 -19,-3 -29,-10l-34 -24 61 -87zm0 50l7 5c3,2 6,3 9,3 3,0 5,-2 7,-4 3,-5 1,-10 -6,-15l-7 -5 -11 16zm-12 17l-13 18 8 6c7,5 13,5 17,-2 2,-3 3,-6 2,-9 -1,-3 -3,-6 -7,-8l-8 -5zm78 119l9 -19 -26 -22 -17 12 -24 -20 95 -59 29 25 -42 104 -24 -20zm19 -40l8 -16c2,-4 4,-8 7,-14 3,-6 5,-10 6,-12 -2,2 -5,4 -10,8 -5,4 -14,10 -28,20l17 14zm103 50c-4,-5 -10,-7 -17,-7 -7,1 -14,4 -21,11 -15,13 -18,26 -8,38 3,4 7,7 10,9 4,2 8,5 12,7l-18 16c-9,-4 -17,-10 -24,-19 -10,-12 -15,-24 -14,-37 1,-13 9,-24 22,-36 8,-7 17,-12 26,-14 9,-2 18,-2 26,1 8,3 16,8 23,16 8,9 13,19 16,30l-23 8c-1,-4 -3,-8 -4,-12 -2,-4 -4,-7 -7,-11zm8 158l-45 -69 15 -10 80 3 -24 -37 19 -13 44 67 -15 10 -80 -3 26 39 -19 13zm84 19l43 0 13 28 -73 -4 -37 17 -12 -26 37 -17 45 -59 13 28 -28 33zm-7 180l-10 -36 61 -58 0 -1c-11,4 -20,7 -25,9l-46 13 -7 -24 102 -29 10 36 -60 57 0 0c10,-4 18,-6 24,-8l46 -13 7 24 -102 29zm92 -95l2 -1c10,5 16,8 19,9 3,1 5,2 7,3l9 30 -1 0c-4,-3 -9,-7 -16,-12 -6,-5 -11,-9 -14,-12l-5 -18zm-44 178c-6,1 -12,1 -18,-2 -6,-2 -10,-6 -14,-12 -4,-6 -7,-13 -8,-21 -1,-7 -2,-13 -2,-18 0,-5 1,-10 2,-16l25 -5c-2,6 -3,12 -3,18 0,6 0,12 1,16 1,4 2,7 4,9 2,2 4,2 6,2 1,0 3,-1 4,-2 1,-1 2,-2 2,-4 1,-2 2,-7 4,-15 2,-7 4,-13 6,-17 2,-4 5,-7 8,-9 3,-2 8,-4 13,-5 10,-2 18,0 24,6 7,6 11,15 14,27 2,11 2,22 -1,34l-23 -4c3,-11 3,-19 2,-26 -1,-4 -2,-6 -3,-8 -2,-1 -3,-2 -5,-2 -2,0 -4,2 -5,4 -1,2 -3,9 -5,19 -2,10 -5,17 -9,21 -4,4 -9,7 -16,9zm-29 113l-1 -32 40 -22 -5 -8 -35 1 -1 -29 106 -4 1 29 -46 2c3,1 8,4 14,8l33 21 1 31 -49 -32 -57 35zm-2 12l106 7 -2 29 -106 -7 2 -29zm-15 114l11 -62 104 18 -11 62 -23 -4 6 -34 -16 -3 -6 31 -23 -4 6 -31 -20 -3 -6 34 -23 -4zm45 75l-12 44 -55 -15c-1,-13 1,-27 4,-41 4,-16 12,-27 24,-33 11,-6 26,-7 43,-2 17,4 28,13 35,24 7,12 8,26 3,43 -2,6 -4,12 -7,18 -3,5 -6,10 -9,14l-19 -15c6,-6 10,-14 12,-23 2,-8 1,-15 -3,-21 -4,-6 -11,-10 -21,-13 -10,-3 -17,-3 -23,0 -6,3 -10,8 -12,15 -1,4 -2,8 -2,12l16 4 5 -18 21 6zm-78 160c-16,-8 -26,-18 -30,-30 -4,-12 -3,-25 5,-40 8,-15 17,-24 30,-28 12,-4 26,-1 42,7 16,8 26,18 30,30 4,12 3,26 -5,41 -8,15 -18,24 -30,28 -12,4 -26,1 -42,-7zm33 -65c-18,-9 -31,-8 -37,5 -3,6 -3,12 -1,18 3,5 9,10 18,15 9,5 17,7 23,6 6,-1 11,-4 14,-11 7,-13 1,-24 -18,-33zm-1273 360l107 -148 40 29 -84 115 57 41 -23 32 -97 -70zm299 5c-11,-4 -21,-3 -31,4 -9,7 -17,18 -23,34 -12,33 -5,54 20,63 8,3 15,4 23,5 8,0 16,1 24,0l-14 39c-17,1 -34,-2 -52,-8 -26,-9 -43,-24 -51,-44 -8,-20 -7,-44 3,-73 6,-18 15,-32 27,-43 12,-11 25,-18 40,-21 15,-3 31,-1 48,5 19,7 35,17 49,31l-27 31c-5,-5 -11,-10 -16,-14 -6,-4 -12,-8 -19,-11zm246 194l-55 -6 -29 -73 -15 7 -6 61 -49 -5 19 -181 49 5 -8 79c3,-5 9,-12 17,-22l44 -52 54 6 -66 75 46 106zm212 -26l-140 22 -5 -30 60 -123 -76 12 -6 -39 137 -22 5 30 -60 123 80 -13 6 39zm251 -328l61 91c13,20 18,39 14,57 -4,18 -16,35 -37,49 -21,14 -40,19 -58,16 -18,-3 -34,-14 -47,-34l-62 -92 41 -28 60 89c7,11 14,17 22,19 7,2 15,1 23,-5 8,-6 13,-12 13,-19 1,-7 -3,-16 -10,-27l-60 -89 41 -28zm-458 -1171c177,0 338,72 454,188 41,41 76,87 105,138l-33 0c-26,-43 -57,-83 -92,-118 -111,-111 -265,-180 -434,-180 -170,0 -323,69 -434,180 -35,35 -66,75 -92,118l-33 0c29,-51 64,-97 105,-138 116,-116 277,-188 454,-188zm532 1002c-23,34 -49,65 -78,94 -116,116 -277,188 -454,188 -177,0 -338,-72 -454,-188 -29,-29 -55,-60 -78,-94 12,0 23,-1 34,-1 19,27 41,52 64,75 111,111 265,180 434,180 170,0 323,-69 434,-180 23,-23 45,-48 64,-75 11,0 23,0 34,1zm-510 -584l8 51c17,2 33,5 48,9l26 -44c14,4 28,10 41,16l-11 50c15,7 29,16 42,26l40 -32c11,9 22,19 32,29l-28 43c11,12 21,25 30,39l49 -15c7,11 12,23 18,35 38,-23 78,-43 123,-62l-152 -290c-94,34 -179,88 -245,189 25,-96 149,-204 268,-248l205 372c-240,78 -380,212 -510,442 55,-154 128,-263 228,-345 -32,-97 -124,-167 -232,-167 -108,0 -199,70 -232,167 100,82 174,191 228,345 -130,-230 -270,-364 -510,-442l205 -372c119,44 244,151 268,248 -66,-101 -151,-156 -245,-189l-152 290c44,19 85,39 123,62 5,-12 11,-24 18,-35l49 15c9,-14 19,-27 30,-39l-28 -43c10,-10 21,-20 32,-29l40 32c13,-10 27,-18 42,-26l-11 -50c13,-6 27,-11 41,-16l26 44c16,-4 32,-7 48,-9l8 -51c7,0 15,-1 22,-1 7,0 15,0 22,1zm658 260c-290,37 -447,161 -668,371 129,-186 305,-355 581,-420l-143 -260 -26 10 -20 -37 77 -31 199 366zm-1313 305c258,-23 426,9 599,88 -182,-124 -340,-197 -547,-210l-52 121zm1267 0c-258,-23 -426,9 -599,88 182,-124 340,-197 547,-210l52 121zm67 -151c-276,-3 -454,77 -676,227 134,-145 312,-253 588,-278l-33 -60c18,-4 37,-10 57,-12l64 123zm-1380 -154c290,37 447,161 668,371 -129,-186 -305,-355 -581,-420l143 -260 26 10 20 -37 -77 -31 -199 366z"/>
  </g>
  <sodipodi:namedview id="namedview130" pagecolor="#ffffff" bordercolor="#666666" borderopacity="1.0" inkscape:pageshadow="2" inkscape:pageopacity="0.0" inkscape:pagecheckerboard="0" inkscape:document-units="px" showgrid="false" height="101px" units="px" width="181.892px" inkscape:zoom="2.8638279" inkscape:cx="49.409393" inkscape:cy="47.314296" inkscape:window-width="1920" inkscape:window-height="991" inkscape:window-x="-9" inkscape:window-y="-9" inkscape:window-maximized="1" inkscape:current-layer="Warstwa_x0020_1" fit-margin-top="0" fit-margin-left="0" fit-margin-right="0" fit-margin-bottom="0"/>
 </g>
</svg>
